HIERARCHY
ROOT Hips
{
  OFFSET 0 89.5177 0.535
  CHANNELS 6 Xposition Yposition Zposition Zrotation Xrotation Yrotation
  JOINT Spine
  {
    OFFSET 12.0259 -0.162855 1.69034e-005
    CHANNELS 3 Zrotation Xrotation Yrotation
    JOINT Spine1
    {
      OFFSET 15.3169 -0.0121922 0
      CHANNELS 3 Zrotation Xrotation Yrotation
      JOINT Spine2
      {
        OFFSET 15.3176 -0.0121908 0
        CHANNELS 3 Zrotation Xrotation Yrotation
        JOINT Neck
        {
          OFFSET 19.9142 1.56338 0
          CHANNELS 3 Zrotation Xrotation Yrotation
          JOINT Head
          {
            OFFSET 6.92651 0 0
            CHANNELS 3 Zrotation Xrotation Yrotation
            End Site
            {
              OFFSET 20.7666 0 0
            }
          }
          JOINT LeftShoulder
          {
            OFFSET -6.20654 0.708824 7.28219
            CHANNELS 3 Zrotation Xrotation Yrotation
            JOINT LeftArm
            {
              OFFSET 14.108 0 -1.52588e-005
              CHANNELS 3 Zrotation Xrotation Yrotation
              JOINT LeftForeArm
              {
                OFFSET 28.5802 0 0
                CHANNELS 3 Zrotation Xrotation Yrotation
                JOINT LeftHand
                {
                  OFFSET 27.092 0 0
                  CHANNELS 3 Zrotation Xrotation Yrotation
                  End Site
                  {
                    OFFSET 9.55928 -0.186424 0.145352
                  }
                }
              }
            }
          }
          JOINT RightShoulder
          {
            OFFSET -6.20654 0.708866 -7.28218
            CHANNELS 3 Zrotation Xrotation Yrotation
            JOINT RightArm
            {
              OFFSET 14.108 0 1.52588e-005
              CHANNELS 3 Zrotation Xrotation Yrotation
              JOINT RightForeArm
              {
                OFFSET 28.5802 0 0
                CHANNELS 3 Zrotation Xrotation Yrotation
                JOINT RightHand
                {
                  OFFSET 27.092 0 0
                  CHANNELS 3 Zrotation Xrotation Yrotation
                  End Site
                  {
                    OFFSET 9.55929 -0.186417 -0.145354
                  }
                }
              }
            }
          }
        }
      }
    }
  }
  JOINT LeftUpLeg
  {
    OFFSET 0.005 -0.535 8.837
    CHANNELS 3 Zrotation Xrotation Yrotation
    JOINT LeftLeg
    {
      OFFSET 39.9035 0 0
      CHANNELS 3 Zrotation Xrotation Yrotation
      JOINT LeftFoot
      {
        OFFSET 39.6689 0 0
        CHANNELS 3 Zrotation Xrotation Yrotation
        JOINT LeftToe
        {
          OFFSET 10.1624 13.6296 0
          CHANNELS 3 Zrotation Xrotation Yrotation
          End Site
          {
            OFFSET 8.38147 0 0
          }
        }
      }
    }
  }
  JOINT RightUpLeg
  {
    OFFSET 0.005 -0.535 -8.837
    CHANNELS 3 Zrotation Xrotation Yrotation
    JOINT RightLeg
    {
      OFFSET 39.9035 0 0
      CHANNELS 3 Zrotation Xrotation Yrotation
      JOINT RightFoot
      {
        OFFSET 39.6689 0 0
        CHANNELS 3 Zrotation Xrotation Yrotation
        JOINT RightToe
        {
          OFFSET 10.1624 13.6296 0
          CHANNELS 3 Zrotation Xrotation Yrotation
          End Site
          {
            OFFSET 8.38147 0 0
          }
        }
      }
    }
  }
}
MOTION
Frames:	6
Frame Time:	0.0333333
302.631 89.3637 35.4278 28.5028 -84.6626 -57.3067 1.89126 -1.22909 -1.16715 3.75842 -2.49531 -2.29376 3.75842 -2.49531 -2.29377 -8.3051e-012 -9.0191e-006 -5.27751e-005 -0.58092 -1.18475 0.547839 -178.449 -12.2656 -82.7361 10.3138 -44.9127 29.1293 -16.9818 -6.36111e-015 -3.18055e-015 -62.0604 -33.0431 -51.9165 179.931 9.94114 90.398 52.0414 60.1884 -68.6738 -9.07076 -3.18055e-015 -2.38542e-015 -47.7041 27.0165 40.251 4.54221 3.77599 175.003 -12.2372 1.59028e-015 7.95139e-016 11.2279 5.53045 -10.363 90 2.95149e-015 -3.97569e-016 2.9832 0.255798 177.202 -17.2341 0 1.98785e-016 17.0312 -5.07281 3.17446 90 -9.69075e-016 1.59028e-015 
302.54 89.3656 35.4116 27.9191 -84.7114 -57.9347 1.88886 -1.219 -1.16505 3.75386 -2.47502 -2.28992 3.75386 -2.47502 -2.28993 -8.30669e-012 -9.0191e-006 -5.27751e-005 -0.539659 -1.17071 0.552148 -178.446 -12.2526 -82.7131 10.3526 -44.9458 29.1849 -16.9186 0 1.59028e-015 -61.9096 -33.1693 -51.8272 179.938 9.93618 90.3585 51.9015 60.1865 -68.5006 -9.05609 0 9.93923e-016 -47.5397 26.94 40.0265 4.58982 3.79441 174.97 -12.1606 -2.38542e-015 -1.98785e-016 11.2075 5.47997 -10.2204 90 9.79946e-016 -1.98785e-016 3.01206 0.301681 177.176 -17.1519 7.95139e-016 -0 16.967 -5.08033 3.25711 90 4.22417e-016 1.59028e-015 
302.455 89.3653 35.3953 27.5781 -84.6595 -58.3115 1.90445 -1.22857 -1.16167 3.78499 -2.49432 -2.28077 3.78499 -2.49432 -2.28077 -8.30748e-012 -9.0191e-006 -5.27751e-005 -0.529385 -1.15641 0.585634 -178.442 -12.2546 -82.6965 10.3571 -44.7613 29.199 -16.9355 -9.54166e-015 -3.18055e-015 -61.7478 -33.2914 -51.7082 179.94 9.93447 90.349 51.8271 60.1738 -68.4572 -9.07607 3.18055e-015 1.98785e-016 -47.4954 27.0361 40.052 4.65038 3.75854 174.94 -12.1877 0 -7.95139e-016 11.2265 5.43309 -10.1145 90 2.23788e-015 -1.98785e-016 3.11251 0.27092 177.151 -17.0923 -3.97569e-016 -1.98785e-016 16.9341 -5.08971 3.32964 90 -3.97569e-016 -3.18055e-015 
302.388 89.3615 35.3836 27.7557 -84.5618 -58.1463 1.92464 -1.23963 -1.15956 3.82519 -2.51678 -2.27749 3.82519 -2.51678 -2.2775 -8.30748e-012 -9.0191e-006 -5.27751e-005 -0.536007 -1.21502 0.600963 -178.458 -12.1528 -82.7137 10.4239 -44.6108 29.2247 -16.8495 0 -4.77083e-015 -61.6032 -33.312 -51.5455 179.943 9.93347 90.3331 51.3208 60.0797 -67.9561 -9.08152 -3.18055e-015 -8.94531e-016 -47.2317 27.1619 39.786 4.69918 3.64629 174.899 -12.2427 -7.95139e-016 -0 11.2371 5.3796 -9.96505 90 -1.62211e-015 -1.98785e-016 3.22698 0.228547 177.12 -17.0503 0 1.98785e-016 16.9133 -5.07723 3.35381 90 9.19379e-016 -1.59028e-015 
302.335 89.3549 35.368 28.0634 -84.4995 -57.842 1.93952 -1.24851 -1.16352 3.8547 -2.53496 -2.28478 3.8547 -2.53496 -2.28479 -8.30907e-012 -9.0191e-006 -5.27751e-005 -0.494173 -1.2945 0.651197 -178.464 -12.0946 -82.7058 10.4317 -44.5988 29.2079 -16.7867 -3.18055e-015 6.36111e-015 -61.5164 -33.3353 -51.446 179.946 9.93311 90.3136 51.098 60.0469 -67.7209 -9.086 0 -1.19271e-015 -47.3834 27.2632 40.0715 4.71339 3.61646 174.877 -12.3097 -7.95139e-016 -5.96354e-016 11.3072 5.41896 -10.0586 90 1.63764e-015 -1.98785e-016 3.29532 0.19372 177.093 -17.0275 3.97569e-016 9.93923e-017 16.9032 -5.05846 3.34622 90 -4.47266e-016 -0 
302.296 89.3512 35.3516 28.7163 -84.4516 -57.1889 1.94445 -1.2655 -1.16961 3.86412 -2.56924 -2.29631 3.86412 -2.56924 -2.29632 -8.30748e-012 -9.0191e-006 -5.27751e-005 -0.427754 -1.31005 0.692008 -178.47 -12.0506 -82.7108 10.449 -44.5242 29.1661 -16.8028 -3.18055e-015 -0 -61.6001 -33.2478 -51.4789 179.943 9.93215 90.3331 51.1601 60.0549 -67.7544 -9.05227 0 -1.78906e-015 -47.3759 27.2604 40.154 4.71162 3.54828 174.857 -12.3389 -7.95139e-016 -3.97569e-016 11.3303 5.40553 -10.0466 90 1.69433e-015 -3.97569e-016 3.33646 0.130917 177.069 -17.0047 0 2.98177e-016 16.8861 -5.06239 3.37523 90 -1.81391e-015 -6.36111e-015 
